<?xml version="1.0" encoding="UTF-8"?>
<svg version="1.1" xmlns="http://www.w3.org/2000/svg" width="306" height="314">
<path d="M0 0 C100.98 0 201.96 0 306 0 C306 103.62 306 207.24 306 314 C205.02 314 104.04 314 0 314 C0 210.38 0 106.76 0 0 Z " fill="#0E1015" transform="translate(0,0)"/>
<path d="M0 0 C18.39100455 -2.21461084 18.39100455 -2.21461084 23.9765625 1.21289062 C27.29587952 4.39991603 29.58944852 8.24390988 31.88818359 12.20068359 C33.50520515 14.81760255 35.51332108 16.960704 37.625 19.1875 C45.18436872 27.42060924 52.04161855 36.25936281 59 45 C62.45992428 43.57708742 64.02648569 41.94036907 66.125 38.875 C67.6328125 36.6796875 67.6328125 36.6796875 69 35 C69.66 35 70.32 35 71 35 C71.22429687 34.46632812 71.44859375 33.93265625 71.6796875 33.3828125 C73.43900295 30.20771657 75.75334701 27.59903348 78.125 24.875 C79.12350085 23.71318836 80.12088796 22.55041865 81.1171875 21.38671875 C81.85340332 20.52699463 81.85340332 20.52699463 82.60449219 19.64990234 C84.53518182 17.36725704 86.3958099 15.03250513 88.25 12.6875 C88.89839844 11.89988281 89.54679687 11.11226562 90.21484375 10.30078125 C92.04010583 8.05674576 92.04010583 8.05674576 93.37890625 5.60546875 C95.11113666 2.91036367 96.18265775 1.58638041 99 0 C105.28280755 -0.97379258 111.6895467 -0.45389874 118 0 C116.6685435 2.878418 115.16701678 5.19196251 113.12890625 7.6171875 C112.27594971 8.64042114 112.27594971 8.64042114 111.40576172 9.68432617 C110.79748535 10.40724854 110.18920898 11.1301709 109.5625 11.875 C105.08180877 17.25056666 100.65946272 22.65419574 96.375 28.1875 C92.11161465 33.68460644 87.65656116 38.98767318 83.05810547 44.20776367 C80.75374815 46.84553245 78.65556917 49.44546641 76.77734375 52.40625 C76.19082031 53.2621875 75.60429687 54.118125 75 55 C74.34 55 73.68 55 73 55 C72.01 57.97 72.01 57.97 71 61 C71.66 61 72.32 61 73 61 C74.723371 63.0273165 76.3381071 65.06531385 77.9375 67.1875 C81.681716 72.060924 85.4942024 76.83907556 89.5 81.5 C93.74209928 86.45012012 97.79221084 91.52070818 101.78271484 96.67504883 C105.74779153 101.76112336 109.92831288 106.64409002 114.20483398 111.47045898 C116.39759142 113.97431869 117.93569884 115.80709652 119 119 C101.50279211 120.46226666 101.50279211 120.46226666 96.171875 117.34765625 C94.15301251 115.01283357 92.58420786 112.64693084 91 110 C89.75079923 108.39954405 88.4791418 106.81640457 87.1875 105.25 C86.53007812 104.41855469 85.87265625 103.58710938 85.1953125 102.73046875 C82.24891688 99.06582367 79.20636617 95.4873665 76.15283203 91.91186523 C73.87371683 89.23729618 71.6228053 86.54886661 69.4375 83.796875 C68.65375 82.81203125 67.87 81.8271875 67.0625 80.8125 C66.02802734 79.49185547 66.02802734 79.49185547 64.97265625 78.14453125 C63.0560992 76.06098705 61.60301183 75.04236939 59 74 C53.01086885 80.47428424 47.57151466 87.29493867 42.27001953 94.33154297 C41.00950264 95.98751615 39.72538153 97.62225231 38.43359375 99.25390625 C37.63050781 100.28386719 36.82742187 101.31382812 36 102.375 C35.278125 103.29023438 34.55625 104.20546875 33.8125 105.1484375 C31.76938277 108.36282452 30.95283933 111.3296458 30 115 C27.88206998 118.62097713 26.50015337 120.66656442 23 123 C18.49717589 123.72517392 15.00714346 123.60000036 11.0625 121.25 C8.0781222 117.99431512 7.19364455 116.11883516 6.4375 111.75 C7.24523437 106.36510418 10.06026501 103.6061284 14 100 C15.03125 99.319375 16.0625 98.63875 17.125 97.9375 C19.84453892 96.10476725 20.95116748 94.88513186 22.75 92.25 C23.4925 91.1775 24.235 90.105 25 89 C25.66 89 26.32 89 27 89 C27.21527344 88.31292969 27.43054688 87.62585938 27.65234375 86.91796875 C29.39505812 83.14461329 31.82519477 80.4073022 34.5625 77.3125 C38.14919703 73.41394767 38.14919703 73.41394767 41 69 C41.66 69 42.32 69 43 69 C43.268125 68.4225 43.53625 67.845 43.8125 67.25 C45 65 45 65 46.6875 63 C48.22587837 61.12894422 48.22587837 61.12894422 47.75537109 59.10327148 C46.90301976 56.72996613 45.84657962 55.27579828 44.2265625 53.34765625 C43.65462158 52.66026367 43.08268066 51.97287109 42.4934082 51.26464844 C41.8768335 50.53793945 41.26025879 49.81123047 40.625 49.0625 C39.99231201 48.30614258 39.35962402 47.54978516 38.70776367 46.77050781 C36.81204889 44.50778035 34.90715967 42.25308354 33 40 C32.00363171 38.81663735 31.00751234 37.63306505 30.01171875 36.44921875 C26.88325422 32.73719777 23.73743459 29.04004179 20.58984375 25.34423828 C13.52904443 17.04972301 6.52621908 8.7271066 0 0 Z " fill="#1E33FB" transform="translate(93,99)"/>
<path d="M0 0 C18.39100455 -2.21461084 18.39100455 -2.21461084 23.9765625 1.21289062 C27.29587952 4.39991603 29.58944852 8.24390988 31.88818359 12.20068359 C33.50520515 14.81760255 35.51332108 16.960704 37.625 19.1875 C40.84924353 22.70909691 43.99330198 26.27936071 47.0625 29.9375 C47.81660156 30.83339844 48.57070312 31.72929687 49.34765625 32.65234375 C51 35 51 35 51 38 C46.99516527 35.10761936 44.64568654 32.14490891 42 28 C40.50113129 26.16310524 40.50113129 26.16310524 39 25 C38.34 25 37.68 25 37 25 C36.67 23.35 36.34 21.7 36 20 C34.576875 20.0309375 34.576875 20.0309375 33.125 20.0625 C30 20 30 20 28 19 C28.144375 17.80375 28.28875 16.6075 28.4375 15.375 C28.46767471 12.53857708 28.33357748 11.39345036 26.4765625 9.203125 C25.22544041 8.1715876 23.94282079 7.17682797 22.62890625 6.2265625 C21 5 21 5 20 3 C18.84371094 3.01740234 18.84371094 3.01740234 17.6640625 3.03515625 C16.15972656 3.04869141 16.15972656 3.04869141 14.625 3.0625 C13.62726563 3.07410156 12.62953125 3.08570312 11.6015625 3.09765625 C9 3 9 3 7 2 C7.495 2.94875 7.99 3.8975 8.5 4.875 C10 8 10 8 10 10 C10.66 10 11.32 10 12 10 C12.103125 10.639375 12.20625 11.27875 12.3125 11.9375 C12.539375 12.618125 12.76625 13.29875 13 14 C13.99 14.33 14.98 14.66 16 15 C17.1875 17.5625 17.1875 17.5625 18 20 C18.66 20 19.32 20 20 20 C20 20.66 20 21.32 20 22 C20.99 22.33 21.98 22.66 23 23 C23 23.66 23 24.32 23 25 C23.66 25 24.32 25 25 25 C27.29648649 27.5614657 28 28.47967572 28 32 C30.31 32.33 32.62 32.66 35 33 C34.979375 33.7425 34.95875 34.485 34.9375 35.25 C34.99328688 37.70462279 35.3069904 39.66109261 36 42 C32.64950566 39.45983105 29.98464906 36.96421555 27.4375 33.625 C24.07072106 29.30992227 20.57975665 25.13755352 17 21 C11.10749618 14.1722368 5.40372194 7.22319823 0 0 Z " fill="#1B75DA" transform="translate(93,99)"/>
<path d="M0 0 C1.9375 0.3125 1.9375 0.3125 4 1 C4.33 1.99 4.66 2.98 5 4 C7.00016466 5.20882096 7.00016466 5.20882096 9 6 C9 6.99 9 7.98 9 9 C9.66 9 10.32 9 11 9 C13.125 10.875 13.125 10.875 15 13 C15 13.66 15 14.32 15 15 C15.66 15.33 16.32 15.66 17 16 C17.99709506 17.21930481 18.95000316 18.47513388 19.875 19.75 C21.65761062 22.18798218 23.44957239 24.5442192 25.375 26.875 C27 29 27 29 27 31 C27.66 31 28.32 31 29 31 C31.125 32.875 31.125 32.875 33 35 C33 35.66 33 36.32 33 37 C34.32 37.33 35.64 37.66 37 38 C37 39.66666667 37 41.33333333 37 43 C40.42232972 44.14077657 43.08673217 44.09815117 46.6875 44.0625 C47.86699219 44.05347656 49.04648438 44.04445312 50.26171875 44.03515625 C51.16535156 44.02355469 52.06898438 44.01195312 53 44 C52.21869929 41.50447516 52.21869929 41.50447516 51 39 C50.01 38.67 49.02 38.34 48 38 C47.3125 35.9375 47.3125 35.9375 47 34 C46.34 34 45.68 34 45 34 C45 33.01 45 32.02 45 31 C44.34 31 43.68 31 43 31 C43 30.34 43 29.68 43 29 C42.34 29 41.68 29 41 29 C40.7525 28.4225 40.505 27.845 40.25 27.25 C39.06009525 24.86550111 39.06009525 24.86550111 36.875 22.875 C36.25625 22.25625 35.6375 21.6375 35 21 C35 20.34 35 19.68 35 19 C34.01 19 33.02 19 32 19 C30.68 16.69 29.36 14.38 28 12 C27.34 12 26.68 12 26 12 C25.67 10.35 25.34 8.7 25 7 C24.34 7 23.68 7 23 7 C22.34 6.01 21.68 5.02 21 4 C21.33 3.01 21.66 2.02 22 1 C26.83722686 6.32609553 31.47287549 11.76052332 35.9375 17.40234375 C38.08021431 20.10102749 40.2535879 22.77206561 42.4375 25.4375 C43.18 26.345 43.9225 27.2525 44.6875 28.1875 C46.28504662 30.13046211 47.88967764 32.06761317 49.5 34 C50.304375 34.969375 51.10875 35.93875 51.9375 36.9375 C52.66839844 37.81277344 53.39929688 38.68804687 54.15234375 39.58984375 C55.7669694 41.69602562 56.86338847 43.6235627 58 46 C40.50279211 47.46226666 40.50279211 47.46226666 35.171875 44.34765625 C33.15301251 42.01283357 31.58420786 39.64693084 30 37 C28.75079923 35.39954405 27.4791418 33.81640457 26.1875 32.25 C25.53007812 31.41855469 24.87265625 30.58710938 24.1953125 29.73046875 C21.70199523 26.62934994 19.14103182 23.59276494 16.5625 20.5625 C3.3420735 5.01311025 3.3420735 5.01311025 0 0 Z " fill="#2F1AD0" transform="translate(154,172)"/>
<path d="M0 0 C0.78552246 0.01047363 1.57104492 0.02094727 2.38037109 0.03173828 C3.23115234 0.03818359 4.08193359 0.04462891 4.95849609 0.05126953 C6.29267578 0.07640625 6.29267578 0.07640625 7.65380859 0.10205078 C8.99958984 0.11558594 8.99958984 0.11558594 10.37255859 0.12939453 C12.59157445 0.15300108 14.81005937 0.18592768 17.02880859 0.22705078 C15.68184027 3.14380331 14.14436173 5.48640313 12.08740234 7.94970703 C11.50748535 8.64845947 10.92756836 9.34721191 10.33007812 10.06713867 C9.71503418 10.80053467 9.09999023 11.53393066 8.46630859 12.28955078 C7.20184292 13.81026542 5.93752025 15.33109898 4.67333984 16.85205078 C4.05410645 17.59455078 3.43487305 18.33705078 2.796875 19.10205078 C0.39884113 21.98419478 -1.97507792 24.88522039 -4.34619141 27.78955078 C-5.05517578 28.65708984 -5.76416016 29.52462891 -6.49462891 30.41845703 C-6.98189453 31.01529297 -7.46916016 31.61212891 -7.97119141 32.22705078 C-8.63119141 31.23705078 -9.29119141 30.24705078 -9.97119141 29.22705078 C-9.31119141 28.83517578 -8.65119141 28.44330078 -7.97119141 28.03955078 C-5.67952474 26.37288411 -5.67952474 26.37288411 -5.72119141 23.53955078 C-5.80369141 22.77642578 -5.88619141 22.01330078 -5.97119141 21.22705078 C-4.79556641 20.79392578 -4.79556641 20.79392578 -3.59619141 20.35205078 C0.15391226 18.7448635 1.35738392 16.80867509 3.02880859 13.22705078 C3.68880859 13.55705078 4.34880859 13.88705078 5.02880859 14.22705078 C5.21443359 13.36080078 5.21443359 13.36080078 5.40380859 12.47705078 C6.04297426 10.17605437 6.82186496 8.28595463 8.02880859 6.22705078 C8.68880859 5.89705078 9.34880859 5.56705078 10.02880859 5.22705078 C10.35880859 4.23705078 10.68880859 3.24705078 11.02880859 2.22705078 C10.36880859 2.39205078 9.70880859 2.55705078 9.02880859 2.72705078 C5.29781066 3.34888377 1.81007481 3.29114004 -1.97119141 3.22705078 C-2.05369141 3.76330078 -2.13619141 4.29955078 -2.22119141 4.85205078 C-3.87616687 10.09280642 -7.05980179 13.4850024 -11.32666016 16.80126953 C-13.951799 19.07722126 -16.07052439 21.76918963 -18.26025391 24.45751953 C-19.97119141 26.22705078 -19.97119141 26.22705078 -22.11962891 27.27783203 C-24.33053493 28.13850343 -24.33053493 28.13850343 -24.97119141 31.22705078 C-25.63119141 30.89705078 -26.29119141 30.56705078 -26.97119141 30.22705078 C-26.59422119 29.76967529 -26.21725098 29.3122998 -25.82885742 28.84106445 C-24.0636028 26.69905736 -22.29862786 24.55682003 -20.53369141 22.41455078 C-19.89786133 21.64296631 -19.26203125 20.87138184 -18.60693359 20.07641602 C-14.26803622 14.80877491 -9.94565333 9.528315 -5.64306641 4.23095703 C-2.33780695 0.26927923 -2.33780695 0.26927923 0 0 Z " fill="#1478EB" transform="translate(193.97119140625,98.77294921875)"/>
<path d="M0 0 C1.32 0.66 2.64 1.32 4 2 C3.28070313 2.69222656 2.56140625 3.38445312 1.8203125 4.09765625 C-1.08763714 7.0086712 -3.61765619 10.18094071 -6.125 13.4375 C-7.08449345 14.67198536 -8.04413343 15.90635683 -9.00390625 17.140625 C-9.49391113 17.77291016 -9.98391602 18.40519531 -10.48876953 19.05664062 C-12.01424562 21.01831909 -13.55004145 22.97142628 -15.08984375 24.921875 C-15.58790527 25.55295166 -16.0859668 26.18402832 -16.59912109 26.83422852 C-17.55599035 28.04603941 -18.51332783 29.25748077 -19.47119141 30.46850586 C-23.48586368 35.45558506 -23.48586368 35.45558506 -25.875 41.3125 C-27.45544548 46.49284907 -29.47024349 49.98016232 -34 53 C-38.50282411 53.72517392 -41.99285654 53.60000036 -45.9375 51.25 C-49.00686709 47.90159954 -49.85907479 46.10726949 -50.4375 41.5625 C-49.89148469 37.11637534 -48.38740941 35.79461276 -45 33 C-45.16242188 33.5671875 -45.32484375 34.134375 -45.4921875 34.71875 C-46.01234091 37.05543918 -46.13318559 39.10980766 -46.125 41.5 C-46.12757812 42.2528125 -46.13015625 43.005625 -46.1328125 43.78125 C-46.00158417 45.973535 -45.60331338 47.89319137 -45 50 C-41.28400809 50.20086443 -40.22791555 50.1519437 -37 48 C-36.67 48.66 -36.34 49.32 -36 50 C-35.01 50 -34.02 50 -33 50 C-32.67 49.01 -32.34 48.02 -32 47 C-31.01 46.505 -31.01 46.505 -30 46 C-29.34444881 43.47266765 -29.34444881 43.47266765 -29 41 C-28.34 41 -27.68 41 -27 41 C-27 39.35 -27 37.7 -27 36 C-26.34 36 -25.68 36 -25 36 C-25.33 34.68 -25.66 33.36 -26 32 C-25.40316406 31.76410156 -24.80632812 31.52820313 -24.19140625 31.28515625 C-21.5010636 29.70739737 -20.53681651 28.09449782 -18.9375 25.4375 C-16.32643525 21.10881175 -16.32643525 21.10881175 -13 20 C-12.30959426 18.34302621 -11.6469365 16.6744239 -11 15 C-9 12.1875 -9 12.1875 -7 10 C-6.34 10 -5.68 10 -5 10 C-4.896875 9.443125 -4.79375 8.88625 -4.6875 8.3125 C-3.7672748 5.21719704 -2.30606867 2.30606867 0 0 Z " fill="#2E1DD9" transform="translate(150,169)"/>
<path d="M0 0 C0.66 0 1.32 0 2 0 C2.20395079 3.67111414 1.76683472 5.79761207 0 9 C0 9.66 0 10.32 0 11 C-1.609375 12.296875 -1.609375 12.296875 -3.75 13.75 C-7.44841068 16.43085854 -9.70172861 18.99930536 -12 23 C-14.18006562 26.74265601 -16.5404391 30.29104301 -19.0625 33.8125 C-19.75472656 34.78832031 -20.44695312 35.76414063 -21.16015625 36.76953125 C-21.76730469 37.50558594 -22.37445313 38.24164063 -23 39 C-23.66 39 -24.32 39 -25 39 C-25.33 40.32 -25.66 41.64 -26 43 C-27.32 42.34 -28.64 41.68 -30 41 C-28.88266271 39.49428343 -27.75589965 37.99555708 -26.625 36.5 C-25.68527344 35.24703125 -25.68527344 35.24703125 -24.7265625 33.96875 C-23.87191406 32.99421875 -23.87191406 32.99421875 -23 32 C-22.34 32 -21.68 32 -21 32 C-20.67708984 30.96939453 -20.67708984 30.96939453 -20.34765625 29.91796875 C-18.60494188 26.14461329 -16.17480523 23.4073022 -13.4375 20.3125 C-9.85080297 16.41394767 -9.85080297 16.41394767 -7 12 C-6.34 12 -5.68 12 -5 12 C-4.731875 11.4225 -4.46375 10.845 -4.1875 10.25 C-3 8 -3 8 -1.375 6 C0.37768588 3.85514888 0.37768588 3.85514888 0 0 Z " fill="#2A1ED8" transform="translate(141,156)"/>
<path d="M0 0 C0.66 0 1.32 0 2 0 C2 0.66 2 1.32 2 2 C2.5969165 2.09966064 3.19383301 2.19932129 3.80883789 2.30200195 C6.42175591 3.13435099 7.30721938 4.08496641 9.05859375 6.16796875 C9.88520508 7.13766602 9.88520508 7.13766602 10.72851562 8.12695312 C11.29248047 8.80693359 11.85644531 9.48691406 12.4375 10.1875 C12.99759766 10.84814453 13.55769531 11.50878906 14.13476562 12.18945312 C15.76648687 14.11819714 17.38518614 16.05709059 19 18 C19.50289551 18.60279785 20.00579102 19.2055957 20.52392578 19.82666016 C21.68371671 21.21685689 22.84203717 22.60828019 24 24 C23.67 24.66 23.34 25.32 23 26 C18.99516527 23.10761936 16.64568654 20.14490891 14 16 C12.50113129 14.16310524 12.50113129 14.16310524 11 13 C10.34 13 9.68 13 9 13 C8.67 11.35 8.34 9.7 8 8 C7.05125 8.020625 6.1025 8.04125 5.125 8.0625 C2 8 2 8 0 7 C0 4.69 0 2.38 0 0 Z " fill="#1857E1" transform="translate(121,111)"/>
<path d="M0 0 C0.99 0 1.98 0 3 0 C3 0.66 3 1.32 3 2 C3.66 2 4.32 2 5 2 C5 2.66 5 3.32 5 4 C5.99 4.33 6.98 4.66 8 5 C8 5.66 8 6.32 8 7 C8.66 7 9.32 7 10 7 C12.29648649 9.5614657 13 10.47967572 13 14 C15.31 14.33 17.62 14.66 20 15 C19.979375 15.7425 19.95875 16.485 19.9375 17.25 C19.99328688 19.70462279 20.3069904 21.66109261 21 24 C17.53008852 21.38108581 14.82567749 18.76156994 12.1875 15.3125 C8.78366013 10.94261796 5.20474461 6.80288401 1.46875 2.71484375 C0 1 0 1 0 0 Z " fill="#1A4AE1" transform="translate(108,117)"/>
<path d="M0 0 C1.9375 0.3125 1.9375 0.3125 4 1 C4.33 1.99 4.66 2.98 5 4 C7.00016466 5.20882096 7.00016466 5.20882096 9 6 C9 6.99 9 7.98 9 9 C9.66 9 10.32 9 11 9 C13.125 10.875 13.125 10.875 15 13 C15 13.66 15 14.32 15 15 C15.66 15.33 16.32 15.66 17 16 C17.66 16.99 18.32 17.98 19 19 C18.67 19.99 18.34 20.98 18 22 C5.33029613 7.40318907 5.33029613 7.40318907 0 0 Z " fill="#2E19DC" transform="translate(154,172)"/>
<path d="M0 0 C0.33 0.66 0.66 1.32 1 2 C-1.46921056 8.3144916 -5.67051915 13.82501626 -11 18 C-11.66 18 -12.32 18 -13 18 C-13.33 18.99 -13.66 19.98 -14 21 C-14.66 20.67 -15.32 20.34 -16 20 C-15.58637207 19.50072998 -15.17274414 19.00145996 -14.74658203 18.48706055 C-12.87124768 16.22175566 -10.99810255 13.95465055 -9.125 11.6875 C-8.47402344 10.90181641 -7.82304687 10.11613281 -7.15234375 9.30664062 C-6.21455078 8.1706543 -6.21455078 8.1706543 -5.2578125 7.01171875 C-4.39373779 5.96697388 -4.39373779 5.96697388 -3.51220703 4.90112305 C-1.85049758 2.86657946 -1.85049758 2.86657946 0 0 Z " fill="#1A59D8" transform="translate(183,109)"/>
<path d="M0 0 C0.33 0.99 0.66 1.98 1 3 C0.67 3.33 0.34 3.66 0 4 C-0.63004492 9.75521805 -0.08977821 13.97911041 3 19 C0.3354186 17.98929671 -0.95195872 17.0600516 -2.75 14.8125 C-4.34148084 11.23166812 -4.48560502 8.88484013 -4 5 C-2 2.0625 -2 2.0625 0 0 Z " fill="#2D1ED2" transform="translate(104,202)"/>
<path d="M0 0 C0.99 0.33 1.98 0.66 3 1 C-0.96 5.62 -4.92 10.24 -9 15 C-9.66 14.01 -10.32 13.02 -11 12 C-10.34 11.608125 -9.68 11.21625 -9 10.8125 C-6.70833333 9.14583333 -6.70833333 9.14583333 -6.75 6.3125 C-6.8325 5.549375 -6.915 4.78625 -7 4 C-5.824375 3.566875 -5.824375 3.566875 -4.625 3.125 C-1.90328368 2.15087746 -1.90328368 2.15087746 0 0 Z " fill="#1759E1" transform="translate(195,116)"/>
<path d="M0 0 C0.33 1.32 0.66 2.64 1 4 C-0.98 4.99 -0.98 4.99 -3 6 C-3 6.99 -3 7.98 -3 9 C-3.66 9 -4.32 9 -5 9 C-4.896875 10.216875 -4.79375 11.43375 -4.6875 12.6875 C-4.65408479 16.45005227 -4.90669702 16.88803642 -7.5 20 C-8.325 20.66 -9.15 21.32 -10 22 C-10.66 21.67 -11.32 21.34 -12 21 C-11.21625 19.989375 -10.4325 18.97875 -9.625 17.9375 C-7.73891882 15.31911356 -6.91006005 13.68521017 -6 10.5 C-4.75155639 6.13044738 -2.77222375 3.57470958 0 0 Z " fill="#0E0E3E" transform="translate(130,199)"/>
<path d="M0 0 C2.33333333 2.33333333 4.66666667 4.66666667 7 7 C9.03060659 7.36894582 9.03060659 7.36894582 11.3515625 7.4140625 C12.20234375 7.45273438 13.053125 7.49140625 13.9296875 7.53125 C14.81914062 7.5621875 15.70859375 7.593125 16.625 7.625 C17.5221875 7.66367188 18.419375 7.70234375 19.34375 7.7421875 C21.5622927 7.83659357 23.78082403 7.92216748 26 8 C26 8.33 26 8.66 26 9 C22.70840684 9.05790353 19.41694397 9.09356261 16.125 9.125 C14.71927734 9.15013672 14.71927734 9.15013672 13.28515625 9.17578125 C12.38925781 9.18222656 11.49335938 9.18867188 10.5703125 9.1953125 C9.32918701 9.21102295 9.32918701 9.21102295 8.06298828 9.22705078 C6 9 6 9 4 7 C1.41645782 6.83312552 1.41645782 6.83312552 -1 7 C-0.67 4.69 -0.34 2.38 0 0 Z " fill="#0F0A3B" transform="translate(185,210)"/>
<path d="M0 0 C1.32 0.66 2.64 1.32 4 2 C3.29875 2.66 2.5975 3.32 1.875 4 C-1.02427216 6.85808932 -3.27700904 10.0725997 -5.5703125 13.42578125 C-6.04210937 13.94527344 -6.51390625 14.46476563 -7 15 C-7.99 15 -8.98 15 -10 15 C-10 13 -10 13 -8.625 11.375 C-7 10 -7 10 -5 10 C-4.8453125 9.1646875 -4.8453125 9.1646875 -4.6875 8.3125 C-3.7672748 5.21719704 -2.30606867 2.30606867 0 0 Z " fill="#2A20E1" transform="translate(150,169)"/>
<path d="M0 0 C0.40202411 3.41720494 0.01222273 4.97696486 -1.625 8.0625 C-4.23986873 11.29667974 -6.45479939 12.90510873 -10 15 C-4.54545455 0 -4.54545455 0 0 0 Z " fill="#196CDA" transform="translate(191,101)"/>
<path d="M0 0 C0 3.77167444 -0.61754524 6.48102425 -2 10 C-4.875 11.8125 -4.875 11.8125 -8 13 C-9.33900245 13.65520582 -10.67362813 14.31958845 -12 15 C-11.59007812 14.45730469 -11.18015625 13.91460937 -10.7578125 13.35546875 C-10.21898437 12.64003906 -9.68015625 11.92460937 -9.125 11.1875 C-8.59132812 10.47980469 -8.05765625 9.77210938 -7.5078125 9.04296875 C-6.29185219 7.39543703 -5.13583859 5.70375789 -4 4 C-3.34 4 -2.68 4 -2 4 C-1.34 2.68 -0.68 1.36 0 0 Z " fill="#1D3EDC" transform="translate(166,130)"/>
<path d="M0 0 C0.33 0.99 0.66 1.98 1 3 C-0.40445835 5.2636564 -2.1967913 7.0208685 -4 9 C-4.99 8.67 -5.98 8.34 -7 8 C-6.67 5.69 -6.34 3.38 -6 1 C-3.92446352 0.4465236 -2.15634036 0 0 0 Z " fill="#0E1625" transform="translate(177,114)"/>
<path d="M0 0 C4.25209792 4.12324647 8.13635705 8.51282966 12 13 C11.67 13.66 11.34 14.32 11 15 C7.00030569 12.11133189 4.65932278 9.12653535 2 5 C1.34 4.67 0.68 4.34 0 4 C0 2.68 0 1.36 0 0 Z " fill="#1E4ACF" transform="translate(133,122)"/>
<path d="M0 0 C5.04395895 3.51548654 8.37975847 8.11736877 12 13 C9 14 9 14 7 14 C6.87625 13.195625 6.7525 12.39125 6.625 11.5625 C6.41875 10.716875 6.2125 9.87125 6 9 C5.34 8.67 4.68 8.34 4 8 C2.25160484 5.34243936 1.00872518 3.02617555 0 0 Z " fill="#071335" transform="translate(109,119)"/>
<path d="M0 0 C0 3.63327194 -0.95586411 5.04735927 -3 8 C-3.99 8.66 -4.98 9.32 -6 10 C-6.33 10.99 -6.66 11.98 -7 13 C-9.0625 13.6875 -9.0625 13.6875 -11 14 C-7.80173015 8.88276824 -4.04165813 4.47307108 0 0 Z " fill="#0B1140" transform="translate(180,138)"/>
<path d="M0 0 C1 2 1 2 0.5 4.8125 C-1.54140684 9.15048955 -3.97596399 10.4663477 -8 13 C-8 9.00717059 -6.52191924 7.84668408 -4 4.8125 C-3.2575 3.91144531 -2.515 3.01039063 -1.75 2.08203125 C-1.1725 1.39496094 -0.595 0.70789063 0 0 Z " fill="#0A153A" transform="translate(190,125)"/>
<path d="M0 0 C0.66 0 1.32 0 2 0 C0.55575365 3.23861303 -1.25772247 5.61969163 -3.625 8.25 C-4.25664062 8.95640625 -4.88828125 9.6628125 -5.5390625 10.390625 C-6.02117187 10.92171875 -6.50328125 11.4528125 -7 12 C-7.33 10.68 -7.66 9.36 -8 8 C-6.68 7.67 -5.36 7.34 -4 7 C-4.33 6.01 -4.66 5.02 -5 4 C-4.01 4 -3.02 4 -2 4 C-1.34 2.68 -0.68 1.36 0 0 Z " fill="#203EDB" transform="translate(179,136)"/>
<path d="M0 0 C0.99 0 1.98 0 3 0 C3 0.66 3 1.32 3 2 C3.66 2 4.32 2 5 2 C5 2.66 5 3.32 5 4 C5.99 4.33 6.98 4.66 8 5 C8 5.66 8 6.32 8 7 C8.66 7 9.32 7 10 7 C10.33 8.65 10.66 10.3 11 12 C6.30435607 8.68542782 3.27530896 4.63720719 0 0 Z " fill="#1B55D5" transform="translate(108,117)"/>
<path d="M0 0 C6.27 0 12.54 0 19 0 C17 4 17 4 15 5 C15 3.68 15 2.36 15 1 C7.08 1.495 7.08 1.495 -1 2 C-0.67 1.34 -0.34 0.68 0 0 Z " fill="#2C7BD2" transform="translate(192,99)"/>
<path d="M0 0 C0.66 0 1.32 0 2 0 C2.20395079 3.67111414 1.76683472 5.79761207 0 9 C0 9.66 0 10.32 0 11 C-1.98 11.99 -3.96 12.98 -6 14 C-4.96000776 10.9666893 -3.9403702 8.92809348 -1.875 6.4375 C0.40647384 3.98412212 0.40647384 3.98412212 0 0 Z " fill="#2728DB" transform="translate(141,156)"/>
<path d="M0 0 C2.93200474 2.85276137 5.64315404 5.65079784 8 9 C7.38125 8.79375 6.7625 8.5875 6.125 8.375 C5.42375 8.25125 4.7225 8.1275 4 8 C3.34 8.66 2.68 9.32 2 10 C2 7 2 7 3 5 C1.68 4.67 0.36 4.34 -1 4 C-0.67 2.68 -0.34 1.36 0 0 Z " fill="#10113A" transform="translate(162,182)"/>
<path d="M0 0 C0.99 0.33 1.98 0.66 3 1 C1.7260411 3.03833424 0.38938077 5.03852126 -1 7 C-1.66 7 -2.32 7 -3 7 C-3.66 8.32 -4.32 9.64 -5 11 C-5.66 10.01 -6.32 9.02 -7 8 C-6.34 7.34 -5.68 6.68 -5 6 C-4.01 6 -3.02 6 -2 6 C-2 5.01 -2 4.02 -2 3 C-1.34 3 -0.68 3 0 3 C0 2.01 0 1.02 0 0 Z " fill="#0D113A" transform="translate(137,161)"/>
<path d="M0 0 C0.66 0 1.32 0 2 0 C2 0.66 2 1.32 2 2 C2.66 2 3.32 2 4 2 C4 3.98 4 5.96 4 8 C2.68 7.67 1.36 7.34 0 7 C0 4.69 0 2.38 0 0 Z " fill="#0961FB" transform="translate(121,111)"/>
<path d="M0 0 C0.33 0.66 0.66 1.32 1 2 C-0.25 4.5625 -0.25 4.5625 -2 7 C-2.99 7.33 -3.98 7.66 -5 8 C-5.33 8.99 -5.66 9.98 -6 11 C-6.66 10.67 -7.32 10.34 -8 10 C-5.36 6.7 -2.72 3.4 0 0 Z " fill="#1E4BC9" transform="translate(175,119)"/>
<path d="M0 0 C0.33 1.32 0.66 2.64 1 4 C-0.4375 6.25 -0.4375 6.25 -2 8 C-3.32 7.67 -4.64 7.34 -6 7 C-4.02 4.69 -2.04 2.38 0 0 Z " fill="#091836" transform="translate(204,108)"/>
<path d="M0 0 C2.96125343 1.37486766 5.60121183 2.76664549 8 5 C8.75 7.6875 8.75 7.6875 9 10 C5.01930733 7.12505529 2.56428003 4.17882671 0 0 Z " fill="#051435" transform="translate(120,106)"/>
<path d="M0 0 C4.875 4.75 4.875 4.75 6 7 C2.25 8.125 2.25 8.125 0 7 C0 4.69 0 2.38 0 0 Z " fill="#0E1238" transform="translate(156,175)"/>
<path d="M0 0 C0.33 0.99 0.66 1.98 1 3 C-0.36328125 5.26171875 -0.36328125 5.26171875 -2.3125 7.6875 C-2.94800781 8.49574219 -3.58351562 9.30398437 -4.23828125 10.13671875 C-4.81964844 10.75160156 -5.40101563 11.36648437 -6 12 C-6.66 12 -7.32 12 -8 12 C-6.59023295 8.96147295 -4.91129772 6.4060405 -2.875 3.75 C-2.06675781 2.69039062 -2.06675781 2.69039062 -1.2421875 1.609375 C-0.83226562 1.07828125 -0.42234375 0.5471875 0 0 Z " fill="#2B20C0" transform="translate(134,168)"/>
<path d="M0 0 C0.66 0.33 1.32 0.66 2 1 C1.54625 1.433125 1.0925 1.86625 0.625 2.3125 C-1.20024334 4.10798342 -1.20024334 4.10798342 -3 7 C-3 6.34 -3 5.68 -3 5 C-3.66 4.67 -4.32 4.34 -5 4 C-3.35 2.68 -1.7 1.36 0 0 Z M-9 5 C-7.68 5.33 -6.36 5.66 -5 6 C-6.32 6.33 -7.64 6.66 -9 7 C-9 6.34 -9 5.68 -9 5 Z " fill="#1D3CF4" transform="translate(161,140)"/>
<path d="M0 0 C0.33 0.99 0.66 1.98 1 3 C0.34 3 -0.32 3 -1 3 C-0.79375 3.78375 -0.5875 4.5675 -0.375 5.375 C-0.189375 6.674375 -0.189375 6.674375 0 8 C-0.66 8.66 -1.32 9.32 -2 10 C-2 9.34 -2 8.68 -2 8 C-2.66 8 -3.32 8 -4 8 C-3.49396008 5.83125748 -3.00016187 4.00032373 -2 2 C-1.34 2 -0.68 2 0 2 C0 1.34 0 0.68 0 0 Z " fill="#0D123D" transform="translate(168,152)"/>
<path d="M0 0 C0.99 0.66 1.98 1.32 3 2 C1.02 4.31 -0.96 6.62 -3 9 C-3.66 8.01 -4.32 7.02 -5 6 C-4.360625 5.566875 -3.72125 5.13375 -3.0625 4.6875 C-0.73253997 3.08760823 -0.73253997 3.08760823 0 0 Z " fill="#2152DF" transform="translate(189,122)"/>
<path d="M0 0 C1.9375 0.3125 1.9375 0.3125 4 1 C4.33 1.99 4.66 2.98 5 4 C7.00016466 5.20882096 7.00016466 5.20882096 9 6 C5 6 5 6 3.515625 4.6875 C2.34375 3.125 1.171875 1.5625 0 0 Z " fill="#2B22DF" transform="translate(154,172)"/>
<path d="M0 0 C3.24299151 2.38957269 5.50902342 4.2047869 7 8 C6.01 8 5.02 8 4 8 C0 3.77142857 0 3.77142857 0 0 Z " fill="#2245D7" transform="translate(145,137)"/>
<path d="M0 0 C0.33 0.99 0.66 1.98 1 3 C0.01 4.485 0.01 4.485 -1 6 C-1.66 6 -2.32 6 -3 6 C-3 7.98 -3 9.96 -3 12 C-3.33 12 -3.66 12 -4 12 C-4.33292585 7.75519536 -4.43885872 5.64457375 -2 2.0625 C-1.34 1.381875 -0.68 0.70125 0 0 Z " fill="#261DB4" transform="translate(104,202)"/>
<path d="M0 0 C0.99 0.33 1.98 0.66 3 1 C0.03 4.96 0.03 4.96 -3 9 C-3.33 7.68 -3.66 6.36 -4 5 C-3.34 5 -2.68 5 -2 5 C-1.34 3.35 -0.68 1.7 0 0 Z " fill="#2C1BCC" transform="translate(139,184)"/>
<path d="M0 0 C0.33 0.66 0.66 1.32 1 2 C-0.22934015 5.68802044 -1.93859378 6.72356973 -5 9 C-5.66 8.67 -6.32 8.34 -7 8 C-4.69 5.36 -2.38 2.72 0 0 Z " fill="#233BCA" transform="translate(161,136)"/>
<path d="M0 0 C1.65 0 3.3 0 5 0 C5 1.65 5 3.3 5 5 C3.68 4.67 2.36 4.34 1 4 C0.67 2.68 0.34 1.36 0 0 Z " fill="#1181EC" transform="translate(96,100)"/>
<path d="M0 0 C1.485 0.99 1.485 0.99 3 2 C3 3.32 3 4.64 3 6 C1.68 6.33 0.36 6.66 -1 7 C-0.67 4.69 -0.34 2.38 0 0 Z " fill="#10112C" transform="translate(185,210)"/>
<path d="M0 0 C0.99 0 1.98 0 3 0 C3 0.66 3 1.32 3 2 C3.66 2 4.32 2 5 2 C5.99 3.485 5.99 3.485 7 5 C6.67 5.99 6.34 6.98 6 8 C4.02 5.36 2.04 2.72 0 0 Z " fill="#2C1DCE" transform="translate(160,179)"/>
<path d="M0 0 C1.32 0.33 2.64 0.66 4 1 C-0.75 5.875 -0.75 5.875 -3 7 C-1.125 2.25 -1.125 2.25 0 0 Z " fill="#0E64F7" transform="translate(184,109)"/>
<path d="M0 0 C0.6875 1.8125 0.6875 1.8125 1 4 C-0.3125 5.75 -0.3125 5.75 -2 7 C-2.66 7 -3.32 7 -4 7 C-3.67 5.68 -3.34 4.36 -3 3 C-2.34 3.33 -1.68 3.66 -1 4 C-0.67 2.68 -0.34 1.36 0 0 Z " fill="#1569EA" transform="translate(200,109)"/>
</svg>
